<?xml version="1.0" encoding="UTF-8" standalone="no"?>
<svg
   xmlns:dc="http://purl.org/dc/elements/1.1/"
   xmlns:cc="http://creativecommons.org/ns#"
   xmlns:rdf="http://www.w3.org/1999/02/22-rdf-syntax-ns#"
   xmlns:svg="http://www.w3.org/2000/svg"
   xmlns="http://www.w3.org/2000/svg"
   xmlns:sodipodi="http://sodipodi.sourceforge.net/DTD/sodipodi-0.dtd"
   xmlns:inkscape="http://www.inkscape.org/namespaces/inkscape"
   width="597mm"
   height="210mm"
   viewBox="0 0 597 210"
   version="1.1"
   id="svg8"
   inkscape:version="1.0.1 (3bc2e813f5, 2020-09-07)"
   sodipodi:docname="githubbutton.svg">
  <defs
     id="defs2">
    <clipPath
       clipPathUnits="userSpaceOnUse"
       id="clipPath861">
      <path
         d="M 0,576 H 576 V 0 H 0 Z"
         id="path859" />
    </clipPath>
    <clipPath
       clipPathUnits="userSpaceOnUse"
       id="clipPath1030">
      <path
         d="M 0,551.986 H 530.973 V 0 H 0 Z"
         id="path1028" />
    </clipPath>
  </defs>
  <sodipodi:namedview
     id="base"
     pagecolor="#2d2d2d"
     bordercolor="#666666"
     borderopacity="1.0"
     inkscape:pageopacity="0"
     inkscape:pageshadow="2"
     inkscape:zoom="0.35"
     inkscape:cx="1268.0513"
     inkscape:cy="398.75284"
     inkscape:document-units="mm"
     inkscape:current-layer="layer1"
     inkscape:document-rotation="0"
     showgrid="false"
     inkscape:window-width="1920"
     inkscape:window-height="1017"
     inkscape:window-x="-8"
     inkscape:window-y="1072"
     inkscape:window-maximized="1" />
  <metadata
     id="metadata5">
    <rdf:RDF>
      <cc:Work
         rdf:about="">
        <dc:format>image/svg+xml</dc:format>
        <dc:type
           rdf:resource="http://purl.org/dc/dcmitype/StillImage" />
        <dc:title />
      </cc:Work>
    </rdf:RDF>
  </metadata>
  <g
     inkscape:label="Capa 1"
     inkscape:groupmode="layer"
     id="layer1">
    <rect
       style="fill:#ffffff;fill-opacity:1;fill-rule:evenodd;stroke:none;stroke-width:21.165;stroke-linecap:round;stroke-linejoin:round;stroke-miterlimit:4;stroke-dasharray:none;stroke-opacity:1;paint-order:markers stroke fill"
       id="rect833"
       width="584.09119"
       height="190.99174"
       x="6.4544067"
       y="9.5041275"
       ry="76.351189"
       rx="76.351189" />
    <g
       id="g862"
       style="fill:#ffffff"
       transform="matrix(7.477629,0,0,7.477629,444.34881,255.36071)">
      <rect
         fill="none"
         height="24"
         width="24"
         id="rect860"
         x="0"
         y="0" />
    </g>
    <g
       id="g958">
      <g
         id="g878"
         style="fill:#1e67ff;fill-opacity:1"
         transform="matrix(6.4811463,0,0,6.4811463,92.978418,20.745098)">
        <g
           id="g864"
           style="fill:#1e67ff;fill-opacity:1" />
        <g
           id="g876"
           style="fill:#1e67ff;fill-opacity:1">
          <path
             d="M 21,5 C 19.89,4.65 18.67,4.5 17.5,4.5 15.55,4.5 13.45,4.9 12,6 10.55,4.9 8.45,4.5 6.5,4.5 4.55,4.5 2.45,4.9 1,6 v 14.65 c 0,0.25 0.25,0.5 0.5,0.5 0.1,0 0.15,-0.05 0.25,-0.05 C 3.1,20.45 5.05,20 6.5,20 c 1.95,0 4.05,0.4 5.5,1.5 1.35,-0.85 3.8,-1.5 5.5,-1.5 1.65,0 3.35,0.3 4.75,1.05 0.1,0.05 0.15,0.05 0.25,0.05 0.25,0 0.5,-0.25 0.5,-0.5 V 6 C 22.4,5.55 21.75,5.25 21,5 Z m 0,13.5 C 19.9,18.15 18.7,18 17.5,18 15.8,18 13.35,18.65 12,19.5 V 8 c 1.35,-0.85 3.8,-1.5 5.5,-1.5 1.2,0 2.4,0.15 3.5,0.5 z"
             id="path866"
             style="fill:#1e67ff;fill-opacity:1" />
          <g
             id="g874"
             style="fill:#1e67ff;fill-opacity:1">
            <path
               d="m 17.5,10.5 c 0.88,0 1.73,0.09 2.5,0.26 V 9.24 C 19.21,9.09 18.36,9 17.5,9 15.8,9 14.26,9.29 13,9.83 v 1.66 c 1.13,-0.64 2.7,-0.99 4.5,-0.99 z"
               id="path868"
               style="fill:#1e67ff;fill-opacity:1" />
            <path
               d="m 13,12.49 v 1.66 c 1.13,-0.64 2.7,-0.99 4.5,-0.99 0.88,0 1.73,0.09 2.5,0.26 V 11.9 c -0.79,-0.15 -1.64,-0.24 -2.5,-0.24 -1.7,0 -3.24,0.3 -4.5,0.83 z"
               id="path870"
               style="fill:#1e67ff;fill-opacity:1" />
            <path
               d="m 17.5,14.33 c -1.7,0 -3.24,0.29 -4.5,0.83 v 1.66 c 1.13,-0.64 2.7,-0.99 4.5,-0.99 0.88,0 1.73,0.09 2.5,0.26 v -1.52 c -0.79,-0.16 -1.64,-0.24 -2.5,-0.24 z"
               id="path872"
               style="fill:#1e67ff;fill-opacity:1" />
          </g>
        </g>
      </g>
      <g
         aria-label="Docs"
         id="text912"
         style="font-style:normal;font-variant:normal;font-weight:600;font-stretch:normal;font-size:90.8064px;line-height:1.25;font-family:Poppins;-inkscape-font-specification:'Poppins, Semi-Bold';font-variant-ligatures:normal;font-variant-caps:normal;font-variant-numeric:normal;font-variant-east-asian:normal;fill:#1e67ff;fill-opacity:1;stroke:none;stroke-width:2.27015">
        <path
           d="m 302.9426,72.899942 q 9.98871,0 17.52564,3.904675 7.62774,3.904675 11.71402,11.169186 4.1771,7.173706 4.1771,16.708377 0,9.53467 -4.1771,16.70838 -4.08628,7.0829 -11.71402,10.98757 -7.53693,3.90468 -17.52564,3.90468 H 280.78584 V 72.899942 Z m -0.45403,52.576908 q 9.98871,0 15.43709,-5.44839 5.44838,-5.44838 5.44838,-15.34628 0,-9.897897 -5.44838,-15.437087 -5.44838,-5.629997 -15.43709,-5.629997 h -8.98983 v 41.861754 z"
           style="font-style:normal;font-variant:normal;font-weight:600;font-stretch:normal;font-size:90.8064px;font-family:Poppins;-inkscape-font-specification:'Poppins, Semi-Bold';font-variant-ligatures:normal;font-variant-caps:normal;font-variant-numeric:normal;font-variant-east-asian:normal;fill:#1e67ff;fill-opacity:1;stroke-width:2.27015"
           id="path936" />
        <path
           d="m 368.23232,137.10006 q -7.26451,0 -13.07612,-3.17822 -5.81161,-3.26903 -9.17145,-9.17145 -3.26903,-5.90241 -3.26903,-13.62096 0,-7.71854 3.35984,-13.620955 3.45064,-5.902416 9.35306,-9.08064 5.90241,-3.26903 13.16692,-3.26903 7.26452,0 13.16693,3.26903 5.90242,3.178224 9.26225,9.08064 3.45065,5.902415 3.45065,13.620955 0,7.71855 -3.54145,13.62096 -3.45065,5.90242 -9.44387,9.17145 -5.90241,3.17822 -13.25773,3.17822 z m 0,-11.07838 q 3.45064,0 6.44725,-1.63451 3.08742,-1.72532 4.90355,-5.08516 1.81613,-3.35984 1.81613,-8.17258 0,-7.1737 -3.81387,-10.98757 -3.72306,-3.904674 -9.17145,-3.904674 -5.44838,0 -9.17144,3.904674 -3.63226,3.81387 -3.63226,10.98757 0,7.17371 3.54145,11.07838 3.63225,3.81387 9.08064,3.81387 z"
           style="font-style:normal;font-variant:normal;font-weight:600;font-stretch:normal;font-size:90.8064px;font-family:Poppins;-inkscape-font-specification:'Poppins, Semi-Bold';font-variant-ligatures:normal;font-variant-caps:normal;font-variant-numeric:normal;font-variant-east-asian:normal;fill:#1e67ff;fill-opacity:1;stroke-width:2.27015"
           id="path938" />
        <path
           d="m 400.55926,111.12943 q 0,-7.80935 3.17823,-13.620955 3.17822,-5.902416 8.80822,-9.08064 5.62999,-3.26903 12.89451,-3.26903 9.35306,0 15.43708,4.721933 6.17484,4.631126 8.26339,13.076122 h -13.71177 q -1.08968,-3.269031 -3.72306,-5.085159 -2.54258,-1.906935 -6.35645,-1.906935 -5.44838,0 -8.62661,3.995482 -3.17822,3.904672 -3.17822,11.169182 0,7.17371 3.17822,11.16919 3.17823,3.90468 8.62661,3.90468 7.71854,0 10.07951,-6.90129 h 13.71177 q -2.08855,8.17258 -8.26339,12.98531 -6.17483,4.81274 -15.43708,4.81274 -7.26452,0 -12.89451,-3.17822 -5.63,-3.26903 -8.80822,-9.08064 -3.17823,-5.90242 -3.17823,-13.71177 z"
           style="font-style:normal;font-variant:normal;font-weight:600;font-stretch:normal;font-size:90.8064px;font-family:Poppins;-inkscape-font-specification:'Poppins, Semi-Bold';font-variant-ligatures:normal;font-variant-caps:normal;font-variant-numeric:normal;font-variant-east-asian:normal;fill:#1e67ff;fill-opacity:1;stroke-width:2.27015"
           id="path940" />
        <path
           d="m 477.74464,137.10006 q -6.17483,0 -11.07838,-2.17935 -4.90355,-2.27016 -7.80935,-6.08403 -2.815,-3.81387 -3.08742,-8.44499 h 12.8037 q 0.36323,2.9058 2.815,4.81274 2.54258,1.90693 6.26564,1.90693 3.63226,0 5.63,-1.4529 2.08855,-1.4529 2.08855,-3.72306 0,-2.45178 -2.54258,-3.63226 -2.45177,-1.27129 -7.90016,-2.72419 -5.62999,-1.3621 -9.26225,-2.815 -3.54145,-1.4529 -6.17484,-4.44951 -2.54257,-2.99661 -2.54257,-8.08177 0,-4.177097 2.36096,-7.62774 2.45177,-3.450643 6.90129,-5.448384 4.54032,-1.997741 10.62435,-1.997741 8.98983,0 14.34741,4.54032 5.35757,4.449513 5.90241,12.077255 h -12.16805 q -0.27242,-2.996615 -2.54258,-4.721937 -2.17936,-1.816128 -5.90242,-1.816128 -3.45064,0 -5.35758,1.27129 -1.81612,1.271289 -1.81612,3.541445 0,2.54258 2.54257,3.90468 2.54258,1.27129 7.90016,2.63338 5.44838,1.3621 8.98983,2.815 3.54145,1.45291 6.08403,4.54032 2.63339,2.99661 2.72419,7.99097 0,4.3587 -2.45177,7.80935 -2.36096,3.45064 -6.90128,5.44838 -4.44952,1.90693 -10.44274,1.90693 z"
           style="font-style:normal;font-variant:normal;font-weight:600;font-stretch:normal;font-size:90.8064px;font-family:Poppins;-inkscape-font-specification:'Poppins, Semi-Bold';font-variant-ligatures:normal;font-variant-caps:normal;font-variant-numeric:normal;font-variant-east-asian:normal;fill:#1e67ff;fill-opacity:1;stroke-width:2.27015"
           id="path942" />
      </g>
    </g>
  </g>
</svg>
